<?xml version="1.0" encoding="UTF-8" standalone="no"?>
<!DOCTYPE svg PUBLIC "-//W3C//DTD SVG 1.1//EN"
 "http://www.w3.org/Graphics/SVG/1.1/DTD/svg11.dtd">
<!-- Generated by graphviz version 2.43.0 (0)
 -->
<!-- Title: G Pages: 1 -->
<svg width="1993pt" height="404pt"
 viewBox="0.00 0.00 1993.39 404.00" xmlns="http://www.w3.org/2000/svg" xmlns:xlink="http://www.w3.org/1999/xlink">
<g id="graph0" class="graph" transform="scale(1 1) rotate(0) translate(4 400)">
<title>G</title>
<polygon fill="white" stroke="transparent" points="-4,4 -4,-400 1989.39,-400 1989.39,4 -4,4"/>
<!-- K7NWS&#45;2 -->
<g id="node1" class="node">
<title>K7NWS&#45;2</title>
<ellipse fill="none" stroke="black" cx="1144.54" cy="-162" rx="55.79" ry="18"/>
<text text-anchor="middle" x="1144.54" y="-158.3" font-family="Times,serif" font-size="14.00">K7NWS&#45;2</text>
</g>
<!-- W0FLZ&#45;9 -->
<g id="node2" class="node">
<title>W0FLZ&#45;9</title>
<ellipse fill="none" stroke="black" cx="1067.54" cy="-90" rx="53.09" ry="18"/>
<text text-anchor="middle" x="1067.54" y="-86.3" font-family="Times,serif" font-size="14.00">W0FLZ&#45;9</text>
</g>
<!-- K7NWS&#45;2&#45;&#45;W0FLZ&#45;9 -->
<g id="edge1" class="edge">
<title>K7NWS&#45;2&#45;&#45;W0FLZ&#45;9</title>
<path fill="none" stroke="black" d="M1126.69,-144.76C1114.25,-133.46 1097.73,-118.44 1085.31,-107.15"/>
</g>
<!-- NB2Y -->
<g id="node5" class="node">
<title>NB2Y</title>
<ellipse fill="none" stroke="black" cx="763.54" cy="-90" rx="37.09" ry="18"/>
<text text-anchor="middle" x="763.54" y="-86.3" font-family="Times,serif" font-size="14.00">NB2Y</text>
</g>
<!-- K7NWS&#45;2&#45;&#45;NB2Y -->
<g id="edge4" class="edge">
<title>K7NWS&#45;2&#45;&#45;NB2Y</title>
<path fill="none" stroke="black" d="M1096.09,-152.9C1078.88,-150.05 1059.35,-146.85 1041.54,-144 938.51,-127.5 910.54,-134.22 809.54,-108 803.45,-106.42 797.03,-104.33 790.99,-102.16"/>
</g>
<!-- KJ7T&#45;9 -->
<g id="node7" class="node">
<title>KJ7T&#45;9</title>
<ellipse fill="none" stroke="black" cx="858.54" cy="-90" rx="40.09" ry="18"/>
<text text-anchor="middle" x="858.54" y="-86.3" font-family="Times,serif" font-size="14.00">KJ7T&#45;9</text>
</g>
<!-- K7NWS&#45;2&#45;&#45;KJ7T&#45;9 -->
<g id="edge19" class="edge">
<title>K7NWS&#45;2&#45;&#45;KJ7T&#45;9</title>
<path fill="none" stroke="black" d="M1101.64,-150.4C1092.7,-148.24 1083.32,-146.01 1074.54,-144 1000.54,-127.04 980.66,-128.48 907.54,-108 901.39,-106.28 894.88,-104.2 888.68,-102.1"/>
</g>
<!-- K7QHQ&#45;12 -->
<g id="node8" class="node">
<title>K7QHQ&#45;12</title>
<ellipse fill="none" stroke="black" cx="647.54" cy="-90" rx="61.19" ry="18"/>
<text text-anchor="middle" x="647.54" y="-86.3" font-family="Times,serif" font-size="14.00">K7QHQ&#45;12</text>
</g>
<!-- K7NWS&#45;2&#45;&#45;K7QHQ&#45;12 -->
<g id="edge22" class="edge">
<title>K7NWS&#45;2&#45;&#45;K7QHQ&#45;12</title>
<path fill="none" stroke="black" d="M1096.68,-152.56C1079.34,-149.64 1059.59,-146.49 1041.54,-144 898.02,-124.2 860.23,-133.15 717.54,-108 709.05,-106.5 700.04,-104.58 691.43,-102.56"/>
</g>
<!-- KK7QML&#45;9 -->
<g id="node10" class="node">
<title>KK7QML&#45;9</title>
<ellipse fill="none" stroke="black" cx="1200.54" cy="-90" rx="61.99" ry="18"/>
<text text-anchor="middle" x="1200.54" y="-86.3" font-family="Times,serif" font-size="14.00">KK7QML&#45;9</text>
</g>
<!-- K7NWS&#45;2&#45;&#45;KK7QML&#45;9 -->
<g id="edge9" class="edge">
<title>K7NWS&#45;2&#45;&#45;KK7QML&#45;9</title>
<path fill="none" stroke="black" d="M1157.82,-144.41C1166.61,-133.41 1178.12,-119.03 1186.98,-107.96"/>
</g>
<!-- KD7SCH -->
<g id="node18" class="node">
<title>KD7SCH</title>
<ellipse fill="none" stroke="black" cx="1448.54" cy="-90" rx="51.99" ry="18"/>
<text text-anchor="middle" x="1448.54" y="-86.3" font-family="Times,serif" font-size="14.00">KD7SCH</text>
</g>
<!-- K7NWS&#45;2&#45;&#45;KD7SCH -->
<g id="edge20" class="edge">
<title>K7NWS&#45;2&#45;&#45;KD7SCH</title>
<path fill="none" stroke="black" d="M1190.86,-151.72C1239.89,-141.7 1319.44,-124.9 1387.54,-108 1394.8,-106.2 1402.51,-104.16 1409.91,-102.13"/>
</g>
<!-- NG7N -->
<g id="node19" class="node">
<title>NG7N</title>
<ellipse fill="none" stroke="black" cx="956.54" cy="-90" rx="39.79" ry="18"/>
<text text-anchor="middle" x="956.54" y="-86.3" font-family="Times,serif" font-size="14.00">NG7N</text>
</g>
<!-- K7NWS&#45;2&#45;&#45;NG7N -->
<g id="edge21" class="edge">
<title>K7NWS&#45;2&#45;&#45;NG7N</title>
<path fill="none" stroke="black" d="M1109.18,-147.83C1073.66,-134.61 1019.53,-114.45 986.18,-102.03"/>
</g>
<!-- W7OMR -->
<g id="node24" class="node">
<title>W7OMR</title>
<ellipse fill="none" stroke="black" cx="1329.54" cy="-90" rx="49.29" ry="18"/>
<text text-anchor="middle" x="1329.54" y="-86.3" font-family="Times,serif" font-size="14.00">W7OMR</text>
</g>
<!-- K7NWS&#45;2&#45;&#45;W7OMR -->
<g id="edge35" class="edge">
<title>K7NWS&#45;2&#45;&#45;W7OMR</title>
<path fill="none" stroke="black" d="M1179.34,-147.83C1212.94,-135.12 1263.45,-116.01 1296.46,-103.52"/>
</g>
<!-- JUPITR -->
<g id="node3" class="node">
<title>JUPITR</title>
<ellipse fill="none" stroke="black" cx="681.54" cy="-234" rx="44.39" ry="18"/>
<text text-anchor="middle" x="681.54" y="-230.3" font-family="Times,serif" font-size="14.00">JUPITR</text>
</g>
<!-- JUPITR&#45;&#45;K7NWS&#45;2 -->
<g id="edge2" class="edge">
<title>JUPITR&#45;&#45;K7NWS&#45;2</title>
<path fill="none" stroke="black" d="M723.94,-228.75C796.24,-221.17 947.86,-203.86 1074.54,-180 1083.64,-178.29 1093.33,-176.14 1102.5,-173.96"/>
</g>
<!-- N7MKO&#45;9 -->
<g id="node4" class="node">
<title>N7MKO&#45;9</title>
<ellipse fill="none" stroke="black" cx="56.54" cy="-162" rx="56.59" ry="18"/>
<text text-anchor="middle" x="56.54" y="-158.3" font-family="Times,serif" font-size="14.00">N7MKO&#45;9</text>
</g>
<!-- JUPITR&#45;&#45;N7MKO&#45;9 -->
<g id="edge3" class="edge">
<title>JUPITR&#45;&#45;N7MKO&#45;9</title>
<path fill="none" stroke="black" d="M637.74,-231.2C543.09,-226.79 312.67,-213.29 122.54,-180 114.27,-178.55 105.51,-176.6 97.17,-174.53"/>
</g>
<!-- JUPITR&#45;&#45;NB2Y -->
<g id="edge41" class="edge">
<title>JUPITR&#45;&#45;NB2Y</title>
<path fill="none" stroke="black" d="M668.53,-216.51C655.46,-197.8 639.16,-166.91 653.54,-144 658.34,-136.37 705.27,-115.5 736.27,-102.34"/>
</g>
<!-- KB7UVC -->
<g id="node6" class="node">
<title>KB7UVC</title>
<ellipse fill="none" stroke="black" cx="713.54" cy="-162" rx="51.19" ry="18"/>
<text text-anchor="middle" x="713.54" y="-158.3" font-family="Times,serif" font-size="14.00">KB7UVC</text>
</g>
<!-- JUPITR&#45;&#45;KB7UVC -->
<g id="edge5" class="edge">
<title>JUPITR&#45;&#45;KB7UVC</title>
<path fill="none" stroke="black" d="M689.29,-216.05C694.25,-205.21 700.66,-191.18 705.65,-180.28"/>
</g>
<!-- JUPITR&#45;&#45;KJ7T&#45;9 -->
<g id="edge6" class="edge">
<title>JUPITR&#45;&#45;KJ7T&#45;9</title>
<path fill="none" stroke="black" d="M725.93,-233.35C813,-232.98 1001.24,-226.68 1041.54,-180 1052,-167.89 1051.28,-156.7 1041.54,-144 1004.02,-95.06 966.49,-126.12 907.54,-108 901.52,-106.15 895.13,-104.04 889.02,-101.95"/>
</g>
<!-- JUPITR&#45;&#45;K7QHQ&#45;12 -->
<g id="edge7" class="edge">
<title>JUPITR&#45;&#45;K7QHQ&#45;12</title>
<path fill="none" stroke="black" d="M656.95,-218.97C643.48,-209.8 628.05,-196.47 620.54,-180 609.56,-155.9 623.73,-126.16 635.33,-107.89"/>
</g>
<!-- VCAPK -->
<g id="node9" class="node">
<title>VCAPK</title>
<ellipse fill="none" stroke="black" cx="1763.54" cy="-162" rx="43.59" ry="18"/>
<text text-anchor="middle" x="1763.54" y="-158.3" font-family="Times,serif" font-size="14.00">VCAPK</text>
</g>
<!-- JUPITR&#45;&#45;VCAPK -->
<g id="edge8" class="edge">
<title>JUPITR&#45;&#45;VCAPK</title>
<path fill="none" stroke="black" d="M725.43,-231.59C860.2,-227.04 1280,-211.18 1626.54,-180 1659.13,-177.07 1695.91,-172.43 1723.16,-168.74"/>
</g>
<!-- KD7HGL&#45;7 -->
<g id="node13" class="node">
<title>KD7HGL&#45;7</title>
<ellipse fill="none" stroke="black" cx="345.54" cy="-162" rx="60.39" ry="18"/>
<text text-anchor="middle" x="345.54" y="-158.3" font-family="Times,serif" font-size="14.00">KD7HGL&#45;7</text>
</g>
<!-- JUPITR&#45;&#45;KD7HGL&#45;7 -->
<g id="edge12" class="edge">
<title>JUPITR&#45;&#45;KD7HGL&#45;7</title>
<path fill="none" stroke="black" d="M642.23,-225.7C590.22,-215.91 495.78,-197.73 415.54,-180 407.36,-178.19 398.67,-176.17 390.29,-174.16"/>
</g>
<!-- WA7LAW -->
<g id="node15" class="node">
<title>WA7LAW</title>
<ellipse fill="none" stroke="black" cx="477.54" cy="-162" rx="53.09" ry="18"/>
<text text-anchor="middle" x="477.54" y="-158.3" font-family="Times,serif" font-size="14.00">WA7LAW</text>
</g>
<!-- JUPITR&#45;&#45;WA7LAW -->
<g id="edge14" class="edge">
<title>JUPITR&#45;&#45;WA7LAW</title>
<path fill="none" stroke="black" d="M648.77,-221.75C611.83,-209.08 551.95,-188.53 513.68,-175.4"/>
</g>
<!-- KA7CSE -->
<g id="node17" class="node">
<title>KA7CSE</title>
<ellipse fill="none" stroke="black" cx="180.54" cy="-162" rx="49.29" ry="18"/>
<text text-anchor="middle" x="180.54" y="-158.3" font-family="Times,serif" font-size="14.00">KA7CSE</text>
</g>
<!-- JUPITR&#45;&#45;KA7CSE -->
<g id="edge17" class="edge">
<title>JUPITR&#45;&#45;KA7CSE</title>
<path fill="none" stroke="black" d="M640.63,-227.04C616.96,-223.66 586.6,-219.42 559.54,-216 419.31,-198.24 382.39,-206.49 243.54,-180 235.09,-178.39 226.1,-176.23 217.64,-174"/>
</g>
<!-- WIDE1 -->
<g id="node20" class="node">
<title>WIDE1</title>
<ellipse fill="none" stroke="black" cx="1562.54" cy="-90" rx="43.59" ry="18"/>
<text text-anchor="middle" x="1562.54" y="-86.3" font-family="Times,serif" font-size="14.00">WIDE1</text>
</g>
<!-- JUPITR&#45;&#45;WIDE1 -->
<g id="edge25" class="edge">
<title>JUPITR&#45;&#45;WIDE1</title>
<path fill="none" stroke="black" d="M725.41,-231.45C820.76,-227.53 1053.72,-214.9 1245.54,-180 1351.56,-160.71 1473.32,-121.57 1530.16,-102.28"/>
</g>
<!-- W7ION&#45;10 -->
<g id="node22" class="node">
<title>W7ION&#45;10</title>
<ellipse fill="none" stroke="black" cx="1558.54" cy="-162" rx="59.29" ry="18"/>
<text text-anchor="middle" x="1558.54" y="-158.3" font-family="Times,serif" font-size="14.00">W7ION&#45;10</text>
</g>
<!-- JUPITR&#45;&#45;W7ION&#45;10 -->
<g id="edge27" class="edge">
<title>JUPITR&#45;&#45;W7ION&#45;10</title>
<path fill="none" stroke="black" d="M724.71,-229.8C832.6,-221.77 1122.75,-199.98 1364.54,-180 1411.04,-176.16 1463.79,-171.52 1502.53,-168.06"/>
</g>
<!-- JUPITR&#45;&#45;W7OMR -->
<g id="edge29" class="edge">
<title>JUPITR&#45;&#45;W7OMR</title>
<path fill="none" stroke="black" d="M725.7,-231.89C836.29,-228.59 1122.51,-216.65 1209.54,-180 1232.52,-170.33 1232.7,-159.08 1252.54,-144 1270.25,-130.55 1291.05,-116.31 1306.57,-105.99"/>
</g>
<!-- WA7MCC -->
<g id="node29" class="node">
<title>WA7MCC</title>
<ellipse fill="none" stroke="black" cx="837.54" cy="-162" rx="54.69" ry="18"/>
<text text-anchor="middle" x="837.54" y="-158.3" font-family="Times,serif" font-size="14.00">WA7MCC</text>
</g>
<!-- JUPITR&#45;&#45;WA7MCC -->
<g id="edge38" class="edge">
<title>JUPITR&#45;&#45;WA7MCC</title>
<path fill="none" stroke="black" d="M710.16,-220.16C737.43,-207.93 778.37,-189.55 806.44,-176.96"/>
</g>
<!-- N7MTC&#45;12 -->
<g id="node30" class="node">
<title>N7MTC&#45;12</title>
<ellipse fill="none" stroke="black" cx="971.54" cy="-162" rx="61.19" ry="18"/>
<text text-anchor="middle" x="971.54" y="-158.3" font-family="Times,serif" font-size="14.00">N7MTC&#45;12</text>
</g>
<!-- JUPITR&#45;&#45;N7MTC&#45;12 -->
<g id="edge39" class="edge">
<title>JUPITR&#45;&#45;N7MTC&#45;12</title>
<path fill="none" stroke="black" d="M718.53,-224.11C762.25,-213.6 837.2,-195.56 901.54,-180 909.45,-178.09 917.85,-176.05 925.99,-174.08"/>
</g>
<!-- KF0RY&#45;10 -->
<g id="node31" class="node">
<title>KF0RY&#45;10</title>
<ellipse fill="none" stroke="black" cx="1003.54" cy="-18" rx="55.79" ry="18"/>
<text text-anchor="middle" x="1003.54" y="-14.3" font-family="Times,serif" font-size="14.00">KF0RY&#45;10</text>
</g>
<!-- JUPITR&#45;&#45;KF0RY&#45;10 -->
<g id="edge43" class="edge">
<title>JUPITR&#45;&#45;KF0RY&#45;10</title>
<path fill="none" stroke="black" d="M659.33,-218.22C617.42,-188.59 534.59,-120.63 577.54,-72 601.75,-44.59 839.2,-28.06 948.71,-21.84"/>
</g>
<!-- KD7MYA&#45;2 -->
<g id="node32" class="node">
<title>KD7MYA&#45;2</title>
<ellipse fill="none" stroke="black" cx="219.54" cy="-90" rx="60.39" ry="18"/>
<text text-anchor="middle" x="219.54" y="-86.3" font-family="Times,serif" font-size="14.00">KD7MYA&#45;2</text>
</g>
<!-- JUPITR&#45;&#45;KD7MYA&#45;2 -->
<g id="edge44" class="edge">
<title>JUPITR&#45;&#45;KD7MYA&#45;2</title>
<path fill="none" stroke="black" d="M640.62,-227.17C616.94,-223.83 586.57,-219.6 559.54,-216 496.7,-207.63 330.13,-213.88 276.54,-180 249.87,-163.13 233.31,-128.76 225.31,-108.01"/>
</g>
<!-- VCAPK&#45;&#45;WIDE1 -->
<g id="edge31" class="edge">
<title>VCAPK&#45;&#45;WIDE1</title>
<path fill="none" stroke="black" d="M1731.25,-149.75C1693.74,-136.69 1632.23,-115.27 1594.76,-102.22"/>
</g>
<!-- WJ7H&#45;9 -->
<g id="node25" class="node">
<title>WJ7H&#45;9</title>
<ellipse fill="none" stroke="black" cx="1706.54" cy="-90" rx="46.29" ry="18"/>
<text text-anchor="middle" x="1706.54" y="-86.3" font-family="Times,serif" font-size="14.00">WJ7H&#45;9</text>
</g>
<!-- VCAPK&#45;&#45;WJ7H&#45;9 -->
<g id="edge30" class="edge">
<title>VCAPK&#45;&#45;WJ7H&#45;9</title>
<path fill="none" stroke="black" d="M1750.32,-144.76C1741.25,-133.62 1729.24,-118.87 1720.09,-107.63"/>
</g>
<!-- W7AUW -->
<g id="node33" class="node">
<title>W7AUW</title>
<ellipse fill="none" stroke="black" cx="1820.54" cy="-90" rx="49.29" ry="18"/>
<text text-anchor="middle" x="1820.54" y="-86.3" font-family="Times,serif" font-size="14.00">W7AUW</text>
</g>
<!-- VCAPK&#45;&#45;W7AUW -->
<g id="edge46" class="edge">
<title>VCAPK&#45;&#45;W7AUW</title>
<path fill="none" stroke="black" d="M1776.77,-144.76C1785.84,-133.62 1797.85,-118.87 1807,-107.63"/>
</g>
<!-- ERINB -->
<g id="node11" class="node">
<title>ERINB</title>
<ellipse fill="none" stroke="black" cx="1273.54" cy="-306" rx="42.49" ry="18"/>
<text text-anchor="middle" x="1273.54" y="-302.3" font-family="Times,serif" font-size="14.00">ERINB</text>
</g>
<!-- ERINB&#45;&#45;K7NWS&#45;2 -->
<g id="edge36" class="edge">
<title>ERINB&#45;&#45;K7NWS&#45;2</title>
<path fill="none" stroke="black" d="M1259,-288.99C1234.35,-261.86 1184.64,-207.14 1159.64,-179.61"/>
</g>
<!-- ERINB&#45;&#45;JUPITR -->
<g id="edge10" class="edge">
<title>ERINB&#45;&#45;JUPITR</title>
<path fill="none" stroke="black" d="M1233.32,-300.24C1125.84,-287.53 832.73,-252.88 723.4,-239.95"/>
</g>
<!-- ERINB&#45;&#45;KA7CSE -->
<g id="edge18" class="edge">
<title>ERINB&#45;&#45;KA7CSE</title>
<path fill="none" stroke="black" d="M1231.51,-303.03C1128.4,-297.86 854.9,-282.22 628.54,-252 454.7,-228.79 411.32,-219.95 240.54,-180 233.06,-178.25 225.11,-176.16 217.53,-174.06"/>
</g>
<!-- ERINB&#45;&#45;KD7SCH -->
<g id="edge23" class="edge">
<title>ERINB&#45;&#45;KD7SCH</title>
<path fill="none" stroke="black" d="M1313.87,-300.4C1345.85,-294.57 1389.24,-281.46 1414.54,-252 1450.29,-210.39 1451.54,-140.63 1449.93,-108.35"/>
</g>
<!-- ERINB&#45;&#45;WIDE1 -->
<g id="edge24" class="edge">
<title>ERINB&#45;&#45;WIDE1</title>
<path fill="none" stroke="black" d="M1314.56,-301.14C1351.2,-295.72 1404.38,-282.8 1439.54,-252 1479.48,-217.02 1456.81,-184.98 1490.54,-144 1503.66,-128.06 1522.59,-114.38 1537.74,-104.91"/>
</g>
<!-- WN7SAR&#45;13 -->
<g id="node23" class="node">
<title>WN7SAR&#45;13</title>
<ellipse fill="none" stroke="black" cx="1337.54" cy="-234" rx="67.69" ry="18"/>
<text text-anchor="middle" x="1337.54" y="-230.3" font-family="Times,serif" font-size="14.00">WN7SAR&#45;13</text>
</g>
<!-- ERINB&#45;&#45;WN7SAR&#45;13 -->
<g id="edge28" class="edge">
<title>ERINB&#45;&#45;WN7SAR&#45;13</title>
<path fill="none" stroke="black" d="M1288.39,-288.76C1298.58,-277.62 1312.07,-262.87 1322.34,-251.63"/>
</g>
<!-- DGDAVE -->
<g id="node12" class="node">
<title>DGDAVE</title>
<ellipse fill="none" stroke="black" cx="1799.54" cy="-234" rx="51.99" ry="18"/>
<text text-anchor="middle" x="1799.54" y="-230.3" font-family="Times,serif" font-size="14.00">DGDAVE</text>
</g>
<!-- DGDAVE&#45;&#45;VCAPK -->
<g id="edge11" class="edge">
<title>DGDAVE&#45;&#45;VCAPK</title>
<path fill="none" stroke="black" d="M1790.83,-216.05C1785.17,-205.05 1777.82,-190.76 1772.18,-179.79"/>
</g>
<!-- BALDI -->
<g id="node14" class="node">
<title>BALDI</title>
<ellipse fill="none" stroke="black" cx="402.54" cy="-306" rx="40.09" ry="18"/>
<text text-anchor="middle" x="402.54" y="-302.3" font-family="Times,serif" font-size="14.00">BALDI</text>
</g>
<!-- BALDI&#45;&#45;JUPITR -->
<g id="edge13" class="edge">
<title>BALDI&#45;&#45;JUPITR</title>
<path fill="none" stroke="black" d="M436.76,-296.42C489.58,-283.16 590.54,-257.83 644.84,-244.21"/>
</g>
<!-- BALDI&#45;&#45;N7MKO&#45;9 -->
<g id="edge40" class="edge">
<title>BALDI&#45;&#45;N7MKO&#45;9</title>
<path fill="none" stroke="black" d="M373.94,-293.26C310.31,-267.14 157.36,-204.37 89.7,-176.61"/>
</g>
<!-- AE7ZE&#45;1 -->
<g id="node16" class="node">
<title>AE7ZE&#45;1</title>
<ellipse fill="none" stroke="black" cx="531.54" cy="-306" rx="51.99" ry="18"/>
<text text-anchor="middle" x="531.54" y="-302.3" font-family="Times,serif" font-size="14.00">AE7ZE&#45;1</text>
</g>
<!-- AE7ZE&#45;1&#45;&#45;JUPITR -->
<g id="edge15" class="edge">
<title>AE7ZE&#45;1&#45;&#45;JUPITR</title>
<path fill="none" stroke="black" d="M561.18,-291.17C587.99,-278.66 627.19,-260.37 653.49,-248.09"/>
</g>
<!-- AE7ZE&#45;1&#45;&#45;KA7CSE -->
<g id="edge16" class="edge">
<title>AE7ZE&#45;1&#45;&#45;KA7CSE</title>
<path fill="none" stroke="black" d="M499.15,-291.9C432.12,-264.78 278.88,-202.78 212.35,-175.87"/>
</g>
<!-- KA7CSE&#45;&#45;KD7MYA&#45;2 -->
<g id="edge45" class="edge">
<title>KA7CSE&#45;&#45;KD7MYA&#45;2</title>
<path fill="none" stroke="black" d="M189.99,-144.05C196.12,-133.05 204.08,-118.76 210.19,-107.79"/>
</g>
<!-- KD7SCH&#45;&#45;KF0RY&#45;10 -->
<g id="edge42" class="edge">
<title>KD7SCH&#45;&#45;KF0RY&#45;10</title>
<path fill="none" stroke="black" d="M1410.67,-77.59C1403.06,-75.54 1395.08,-73.56 1387.54,-72 1270.41,-47.71 1130.81,-31.6 1056.41,-24.02"/>
</g>
<!-- N7TUG&#45;8 -->
<g id="node21" class="node">
<title>N7TUG&#45;8</title>
<ellipse fill="none" stroke="black" cx="1553.54" cy="-234" rx="53.89" ry="18"/>
<text text-anchor="middle" x="1553.54" y="-230.3" font-family="Times,serif" font-size="14.00">N7TUG&#45;8</text>
</g>
<!-- N7TUG&#45;8&#45;&#45;W7ION&#45;10 -->
<g id="edge26" class="edge">
<title>N7TUG&#45;8&#45;&#45;W7ION&#45;10</title>
<path fill="none" stroke="black" d="M1554.78,-215.7C1555.56,-204.85 1556.55,-190.92 1557.32,-180.1"/>
</g>
<!-- N6MON&#45;9 -->
<g id="node26" class="node">
<title>N6MON&#45;9</title>
<ellipse fill="none" stroke="black" cx="1927.54" cy="-234" rx="57.69" ry="18"/>
<text text-anchor="middle" x="1927.54" y="-230.3" font-family="Times,serif" font-size="14.00">N6MON&#45;9</text>
</g>
<!-- N6MON&#45;9&#45;&#45;VCAPK -->
<g id="edge32" class="edge">
<title>N6MON&#45;9&#45;&#45;VCAPK</title>
<path fill="none" stroke="black" d="M1894.75,-219C1864.93,-206.28 1821.34,-187.67 1792.71,-175.45"/>
</g>
<!-- CRYSTL -->
<g id="node27" class="node">
<title>CRYSTL</title>
<ellipse fill="none" stroke="black" cx="1238.54" cy="-378" rx="48.19" ry="18"/>
<text text-anchor="middle" x="1238.54" y="-374.3" font-family="Times,serif" font-size="14.00">CRYSTL</text>
</g>
<!-- CRYSTL&#45;&#45;ERINB -->
<g id="edge34" class="edge">
<title>CRYSTL&#45;&#45;ERINB</title>
<path fill="none" stroke="black" d="M1247.02,-360.05C1252.52,-349.05 1259.66,-334.76 1265.15,-323.79"/>
</g>
<!-- CRYSTL&#45;&#45;W7OMR -->
<g id="edge33" class="edge">
<title>CRYSTL&#45;&#45;W7OMR</title>
<path fill="none" stroke="black" d="M1231.31,-360.13C1224.56,-342.13 1216.39,-312.84 1222.54,-288 1240.65,-214.9 1292.52,-139.75 1316.76,-107.42"/>
</g>
<!-- AB7QL&#45;9 -->
<g id="node28" class="node">
<title>AB7QL&#45;9</title>
<ellipse fill="none" stroke="black" cx="1677.54" cy="-234" rx="51.99" ry="18"/>
<text text-anchor="middle" x="1677.54" y="-230.3" font-family="Times,serif" font-size="14.00">AB7QL&#45;9</text>
</g>
<!-- AB7QL&#45;9&#45;&#45;W7ION&#45;10 -->
<g id="edge37" class="edge">
<title>AB7QL&#45;9&#45;&#45;W7ION&#45;10</title>
<path fill="none" stroke="black" d="M1652.31,-218.15C1632.39,-206.44 1604.69,-190.14 1584.57,-178.31"/>
</g>
</g>
</svg>
